PathFileType	4	(X/Y/Z)	Run_500 03
DataRate	CameraRate	NumFrames	NumMarkers	Units	OrigDataRate	OrigDataStartFrame	OrigNumFrames
100	100	4	42	mm	100	75	128
Frame#	Time	RASI			LPSI			RPSI			RTH1			RTH2			RTH3			LTH1			LTH2			LTH3			RTB1			RTB2			RTB3			LTB1			LTB2			LTB3			RCAL			RTOE			RMT5			LCAL			LTOE			LMT5			LACR			RACR			CLAV			C7			RUA1			RUA2			RUA3			RLEL			RMEL			LUA1			LUA2			LUA3			LLEL			LMEL			RFAsuperior			RFAradius			RFAulna			LFAsuperior			LFAradius			LFAulna			LASI		
		X1	Y1	Z1	X2	Y2	Z2	X3	Y3	Z3	X4	Y4	Z4	X5	Y5	Z5	X6	Y6	Z6	X7	Y7	Z7	X8	Y8	Z8	X9	Y9	Z9	X10	Y10	Z10	X11	Y11	Z11	X12	Y12	Z12	X13	Y13	Z13	X14	Y14	Z14	X15	Y15	Z15	X16	Y16	Z16	X17	Y17	Z17	X18	Y18	Z18	X19	Y19	Z19	X20	Y20	Z20	X21	Y21	Z21	X22	Y22	Z22	X23	Y23	Z23	X24	Y24	Z24	X25	Y25	Z25	X26	Y26	Z26	X27	Y27	Z27	X28	Y28	Z28	X29	Y29	Z29	X30	Y30	Z30	X31	Y31	Z31	X32	Y32	Z32	X33	Y33	Z33	X34	Y34	Z34	X35	Y35	Z35	X36	Y36	Z36	X37	Y37	Z37	X38	Y38	Z38	X39	Y39	Z39	X40	Y40	Z40	X41	Y41	Z41	X42	Y42	Z42	

75	  0.750000	767.857744	994.020272	-205.937928	580.813981	1075.381524	-363.743802	586.186710	1071.251826	-280.398727	692.179143	858.021018	-139.750779	728.327048	715.345466	-144.656503	645.791234	621.472361	-154.884295	707.638780	890.641061	-517.279651	805.847091	798.684432	-502.891759	766.776915	644.838326	-485.279193	525.113580	491.160255	-227.932962	433.818233	568.739572	-198.286055	344.767261	568.844737	-276.010175	865.782553	431.266663	-421.500089	808.558827	348.010883	-479.991602	853.207080	225.684900	-401.595424	275.090145	730.408616	-316.913442	163.611239	524.405275	-322.799249	131.656115	570.660402	-245.453759	725.258613	 88.206089	-359.395496	960.354085	 73.510240	-394.182245	907.902356	 49.906263	-470.917481	715.613882	1509.279502	-525.790892	732.868605	1511.772042	-180.978795	798.793300	1478.725436	-334.561822	661.798995	1548.950657	-366.485466	683.161484	1409.319697	-89.143041	605.842377	1338.555854	-100.398536	651.918377	1302.248212	-44.345591	636.410783	1211.322925	 -7.913933	592.342359	1191.271474	-74.011265	656.947272	1435.079518	-632.235328	578.852298	1374.825794	-637.730234	621.561715	1343.761398	-702.469348	604.431009	1270.981337	-754.121909	536.953512	1251.166154	-714.062675	684.174374	1143.729667	 -8.357357	844.038547	1041.698258	-86.005229	794.527251	995.256695	-62.551403	665.049580	1165.175350	-717.943497	742.818832	1089.609686	-601.457876	702.961759	1048.991597	-636.407657	770.785395	1001.548765	-462.382287	
76	  0.760000	764.991667	985.711407	-208.298838	575.997221	1068.486446	-363.995364	581.256925	1062.693693	-280.141267	696.821917	848.772040	-139.941625	741.181231	708.906486	-143.587062	664.922871	611.138422	-152.043931	701.744397	882.973877	-517.240439	798.791655	789.834568	-501.028903	759.644911	637.330941	-485.960054	552.213432	486.381849	-226.437725	462.641692	564.717039	-194.905659	374.236955	568.942099	-273.399381	849.110286	420.307848	-416.323810	786.932872	341.071176	-475.526707	816.308575	216.584995	-392.579916	308.505076	732.708434	-310.551815	193.592622	528.944770	-321.600012	161.896083	574.025378	-242.928903	674.306631	 83.662563	-353.070131	911.048183	 70.651469	-392.009650	861.718083	 48.121166	-469.562236	718.964037	1498.092795	-529.553005	729.251478	1503.013151	-182.042304	799.071012	1468.138374	-334.224599	661.029333	1538.561260	-369.398189	675.988962	1401.827202	-91.704964	598.349922	1331.623053	-104.726263	641.127005	1295.509531	-46.489393	623.013099	1204.332592	-10.290392	580.084755	1185.973882	-76.983724	666.550723	1420.093100	-636.415744	590.962792	1356.509591	-645.022615	637.431267	1327.314347	-707.454568	625.506541	1253.719526	-758.563238	556.801926	1231.104436	-722.585487	666.375910	1133.798400	 -8.321970	819.742493	1018.993221	-78.711027	766.658016	975.900258	-56.406749	689.357271	1152.299831	-717.734979	765.288797	1083.187957	-597.469417	729.151109	1039.908764	-633.572501	767.644215	990.138156	-464.745422	
77	  0.770000	760.756817	976.496122	-211.880243	570.929558	1063.147328	-363.827430	575.591870	1055.635401	-279.611867	701.240021	841.152015	-140.129231	754.675635	705.448326	-143.009960	686.133344	603.705225	-149.606110	694.847906	876.412318	-517.566590	790.392530	780.916226	-499.510115	749.943456	630.331946	-485.396496	581.811497	482.062247	-225.657181	493.112349	559.747736	-191.640223	404.910520	566.166736	-270.579272	829.962251	410.824158	-412.007445	761.750011	336.300300	-471.516796	778.810030	210.648271	-386.613724	339.729647	731.070905	-303.280596	224.896439	527.699091	-320.224458	193.638509	570.341009	-240.110098	624.958617	 83.306103	-347.443514	861.783610	 70.079194	-390.894706	813.171395	 48.101080	-468.088090	722.887007	1488.149083	-532.677206	725.872179	1495.170400	-183.547402	799.323046	1458.433127	-333.306099	660.489502	1529.593995	-372.527103	669.101325	1395.522837	-94.308154	591.135994	1325.518444	-109.140309	630.411698	1289.875094	-49.222543	609.123313	1198.594280	-13.222448	568.139958	1181.306546	-80.865084	675.664051	1407.719984	-638.627090	603.880144	1340.216152	-650.118616	653.269302	1313.232186	-710.511231	647.197591	1238.613594	-760.912603	577.894972	1212.583128	-728.831358	647.845870	1125.487062	 -8.678361	793.760229	998.064005	-72.108535	737.551929	959.035261	-50.171396	714.577909	1141.501829	-715.768834	788.401534	1079.201379	-591.731210	756.416633	1033.232747	-628.923540	763.099243	977.877079	-468.377688	
78	  0.780000	755.721297	967.755417	-214.886226	566.622254	1059.327031	-363.296376	570.623139	1050.264920	-279.246227	704.689090	836.330633	-140.470392	769.207398	705.993195	-143.214777	709.582613	600.440134	-147.365834	687.431380	871.079315	-517.895922	781.269327	772.815159	-498.761909	737.764839	623.638138	-484.296197	613.130518	478.622291	-225.343918	524.111217	554.534583	-189.061701	435.710513	561.225825	-268.100194	807.900363	401.761189	-409.590205	733.618078	332.239883	-468.990452	740.798550	206.432914	-383.924875	366.418917	725.979194	-296.077432	256.941774	520.236711	-318.698187	225.685021	559.369149	-236.876339	577.428650	 86.239625	-343.932144	813.282650	 69.408462	-389.949535	763.030790	 49.027367	-466.715634	726.946996	1480.094699	-534.584352	722.582447	1488.799515	-185.021757	799.070151	1450.543359	-332.035547	660.593808	1523.117612	-375.449989	662.558888	1390.369347	-96.503285	584.016281	1320.807216	-113.729361	619.736999	1285.635079	-52.538118	594.879664	1194.904602	-16.544697	556.205422	1178.210570	-85.362921	683.755608	1397.913782	-639.291594	616.539200	1325.958335	-652.412586	668.314663	1301.929089	-711.684196	668.741380	1226.416183	-761.261590	599.428120	1196.387867	-732.256463	629.049655	1119.701265	 -9.423354	766.389529	979.646342	-67.102882	707.585734	945.774894	-44.362684	739.924042	1133.621848	-711.988211	811.660292	1078.592029	-584.124836	784.392950	1029.864522	-622.288548	757.732896	966.103222	-471.458311	
